<svg width="140" height="146" viewBox="0 0 140 146" fill="none" xmlns="http://www.w3.org/2000/svg">
<g id="wsj6uZ.tif">
<g id="Group">
<path id="Vector" d="M68.5585 0.311815H71.7453C75.8037 1.14132 78.8733 3.30645 80.7948 7.01812C81.1931 7.78201 81.8586 8.03507 82.6647 8.15692C86.5169 8.73804 90.3973 9.10827 94.2823 9.16919C102.704 9.29573 110.994 8.20847 119.116 5.98241C120.719 5.54189 121.665 5.79495 122.678 7.18214C136.371 25.942 142.018 46.8482 139.361 69.9149C137.337 87.4703 130.307 102.898 118.971 116.395C118.16 117.356 117.457 118.298 117.133 119.558C116.29 122.881 114.153 124.976 110.816 125.805C109.771 126.063 108.82 126.471 107.976 127.169C97.4785 135.863 85.5937 141.753 72.3311 144.903C70.7892 145.268 69.3317 145.296 67.8039 144.935C56.4065 142.231 45.9605 137.479 36.4517 130.632C33.6023 128.58 31.1138 125.993 27.6739 124.765C26.2774 124.264 25.2182 123.04 24.6652 121.644C23.8826 119.671 22.5282 118.176 21.1973 116.582C5.44145 97.7055 -1.72882 76.0026 0.351965 51.4644C1.72978 35.2211 7.47068 20.5244 17.1857 7.38366C18.3198 5.84651 19.3368 5.52783 21.1738 6.02459C33.1055 9.28167 45.2059 10.0409 57.4516 8.1663C58.3045 8.03508 59.0637 7.84762 59.4996 7.00406C61.4163 3.28771 64.4953 1.13663 68.5538 0.307129L68.5585 0.311815ZM31.4747 68.1293C31.4747 83.2947 31.4747 98.46 31.4747 113.63C31.4747 117.304 32.2948 118.134 35.9127 118.134C50.4266 118.134 64.9452 118.134 79.4591 118.134C88.19 118.134 96.9255 118.124 105.656 118.138C106.955 118.138 108.126 117.965 108.942 116.812C109.612 115.87 109.518 114.797 109.518 113.738C109.518 89.3074 109.518 64.877 109.518 40.4418C109.518 34.2464 109.532 28.0509 109.504 21.8507C109.49 19.3013 108.36 18.1812 105.82 18.139C103.636 18.1016 101.453 18.1859 99.2734 18.1062C97.83 18.0547 97.2442 18.5936 97.277 20.0558C97.3379 22.9473 97.2442 25.8389 97.3051 28.7304C97.3379 30.2394 96.7568 30.8299 95.229 30.8253C78.7046 30.7971 62.1849 30.7971 45.6605 30.8206C44.2264 30.8206 43.6453 30.2722 43.6735 28.8288C43.7297 25.8811 43.6453 22.9286 43.6969 19.9761C43.7203 18.603 43.1767 18.0594 41.8083 18.1062C39.8634 18.1719 37.9138 18.1156 35.9689 18.1203C32.3698 18.1297 31.47 19.0201 31.47 22.6099C31.47 37.7752 31.47 52.9406 31.47 68.1106L31.4747 68.1293ZM22.8047 106.999C23.3999 105.794 23.2171 104.96 23.2171 104.154C23.2265 77.3007 23.2171 50.4521 23.2359 23.5988C23.2359 21.0681 23.2827 18.5233 24.0326 16.063C24.2294 15.4209 24.7449 14.6383 23.7467 14.254C22.8844 13.9259 21.919 13.5557 21.1363 14.4789C20.7942 14.882 20.499 15.3272 20.2131 15.7724C10.4044 31.0924 6.13504 47.8042 7.55035 65.9689C8.52982 78.5614 12.4149 90.2025 18.8681 101.014C20.035 102.973 21.3707 104.834 22.8 106.999H22.8047ZM117.574 61.3574C117.574 75.3933 117.574 89.4245 117.588 103.46C117.588 104.074 117.26 105.03 117.907 105.237C118.699 105.485 118.942 104.463 119.303 103.92C129.609 88.1639 134.019 70.9178 132.388 52.1345C131.455 41.4119 128.461 31.308 123.395 21.8273C122.092 19.3856 120.559 17.0705 119.102 14.7133C118.647 13.9775 117.958 13.6916 117.124 14.1134C116.281 14.5399 116.632 15.21 116.852 15.8005C117.513 17.5486 117.579 19.3622 117.579 21.1993C117.569 34.5838 117.574 47.9729 117.579 61.3574H117.574ZM95.9554 126.541H44.0577C44.1046 127.277 44.6154 127.427 44.9857 127.661C52.2918 132.24 60.1276 135.563 68.4976 137.639C69.4958 137.887 70.4705 137.887 71.4688 137.639C79.6044 135.628 87.2433 132.423 94.3855 128.05C94.9525 127.703 95.693 127.483 95.9507 126.541H95.9554ZM74.8711 12.0748C74.8617 9.3754 72.7153 7.1962 70.1003 7.22901C67.4618 7.2665 65.3904 9.45038 65.4186 12.1638C65.4467 14.8351 67.4384 16.8315 70.1003 16.8503C72.8466 16.869 74.8758 14.8351 74.8711 12.0748Z" fill="#183178"/>
<path id="Vector_2" d="M97.5126 55.551C97.3017 55.865 97.0673 56.2727 96.7768 56.6382C86.8181 68.9823 76.8453 81.3124 66.9101 93.6799C66.0384 94.7671 65.3823 94.8093 64.3185 93.9517C58.3526 89.1434 52.354 84.3679 46.3272 79.6346C45.1884 78.7395 45.0572 78.0272 46.0085 76.9071C47.691 74.9341 49.3078 72.9002 50.859 70.8194C51.7447 69.629 52.4852 69.6244 53.5912 70.5429C56.3562 72.8393 59.2009 75.0466 62.0127 77.2867C63.3249 78.3302 64.4966 78.2146 65.5276 76.9399C72.8197 67.8997 80.1118 58.8596 87.4039 49.8194C88.4005 48.5854 89.4956 48.4541 90.6891 49.4258C92.6574 51.0239 94.6351 52.6079 96.5987 54.2106C96.997 54.5387 97.4844 54.8246 97.5126 55.551Z" fill="#183178"/>
</g>
</g>
</svg>
