<svg width="140" height="141" viewBox="0 0 140 141" fill="none" xmlns="http://www.w3.org/2000/svg">
<g id="RBvERf.tif">
<path id="Vector" d="M139.922 54.1831C140.275 61.6702 139.185 68.818 137.396 75.8743C137.168 76.7882 137.135 77.6172 137.475 78.5376C139.825 84.889 137.102 92.102 131.123 95.2157C129.883 95.8619 129.106 96.7301 128.408 97.9116C125.039 103.63 121.162 108.963 116.651 113.872C109.576 121.581 101.344 127.723 92.1142 132.528C85.6061 135.915 78.7064 138.337 71.526 139.891C70.5143 140.113 69.4764 140.1 68.4646 139.871C56.0295 137.038 44.7236 131.803 34.6189 124.002C26.0351 117.377 18.8416 109.498 13.1365 100.262C12.6926 99.5435 12.0529 99.1257 11.3284 98.7471C5.101 95.4572 2.45079 89.6998 4.04353 82.8589C4.2981 81.7492 4.18061 80.7243 3.84117 79.6669C0.531669 69.4185 -0.512745 58.8568 0.224876 48.1972C1.40637 31.1536 7.19637 15.7158 17.3795 1.936C18.3521 0.623945 19.2268 0.277981 20.7999 0.715332C29.0965 3.00653 37.5694 4.16844 46.1793 3.95303C53.4446 3.77026 60.6315 2.83681 67.6291 0.819774C69.2283 0.356313 70.7101 0.317147 72.3159 0.761025C80.4558 2.98694 88.759 4.11622 97.1926 3.95303C104.693 3.80942 112.089 2.765 119.321 0.715332C120.79 0.297564 121.671 0.539087 122.624 1.82503C131.371 13.5486 136.907 26.6039 139.146 41.043C139.831 45.4426 140.177 49.8879 139.909 54.1765L139.922 54.1831ZM65.7426 100.993C65.7883 100.875 65.8797 100.764 65.8535 100.686C65.1747 98.0878 65.5598 96.606 67.2635 95.3527C68.8824 94.1582 70.2989 94.2757 72.5966 95.8684C76.585 98.6427 80.5472 101.443 84.516 104.23C88.067 106.724 91.5985 109.25 95.1821 111.704C97.4342 113.245 99.1313 113.127 100.744 111.509C102.806 109.426 102.663 106.783 100.306 105.053C94.8231 101.032 89.3138 97.0564 83.8175 93.0615C80.9062 90.9466 77.9623 88.8773 75.1097 86.6841C73.3538 85.3394 72.936 83.4986 73.7063 81.6447C74.4569 79.8431 76.1084 79.0141 78.3474 79.2491C79.542 79.3731 80.4885 79.9867 81.4219 80.6525C88.4456 85.6592 95.4563 90.6724 102.487 95.6726C105.045 97.4938 107.598 99.3281 110.222 101.051C112.435 102.507 114.713 102.109 115.966 100.209C117.454 97.9442 117.102 95.9011 114.915 94.23C114.419 93.8514 113.903 93.4858 113.388 93.1268C103.263 85.8812 93.139 78.6355 83.0081 71.4029C81.9637 70.6522 81.0825 69.7841 80.6255 68.5569C80.025 66.9445 80.0772 65.4106 81.3305 64.092C82.5773 62.7864 84.0721 62.5776 85.7367 63.1389C86.8268 63.5045 87.8451 64.0136 88.7785 64.6795C99.3141 72.2319 109.856 79.7778 120.385 87.3434C121.384 88.0614 122.435 88.5836 123.636 88.8055C126.143 89.2625 128.845 87.8133 130 85.4308C130.901 83.5769 130.307 81.0964 128.519 79.5429C123.049 74.7777 117.552 70.0582 112.089 65.2865C101.553 56.0826 90.8739 47.0353 80.7039 37.4267C78.021 34.8939 75.1032 33.6863 71.4608 33.843C67.8445 33.9997 64.5023 36.7804 63.9214 40.351C63.608 42.2767 63.0728 44.137 62.2699 45.9191C58.4382 54.4376 50.1938 59.2746 41.8058 57.9103C35.5393 56.892 33.1698 52.6425 35.7482 46.846C36.8774 44.3002 37.4454 41.6631 37.7783 38.928C38.4049 33.8104 38.3005 28.4838 41.7014 24.0973C41.734 24.0516 41.7601 23.9993 41.7862 23.9471C42.1844 23.216 41.8972 22.9549 41.1335 22.844C38.5224 22.4784 37.9414 22.7722 36.7208 25.1808C30.4608 37.4985 24.1812 49.8095 17.9474 62.1467C17.497 63.041 16.3873 64.0071 17.386 65.0776C18.3521 66.1025 19.3116 64.9797 20.1602 64.6338C29.2467 60.9587 37.8501 69.2814 38.1895 75.5806C38.2678 77.0819 38.8227 77.578 40.1869 77.9501C45.174 79.3209 48.8099 82.3693 50.5593 87.2977C51.0815 88.7664 51.793 89.3277 53.2618 89.5627C59.0844 90.5158 62.9422 93.8579 64.8548 99.4456C65.0506 100.007 65.0115 100.718 65.7295 100.999L65.7426 100.993ZM130.575 64.9014C130.418 64.4706 130.301 64.0267 130.105 63.622C123.388 49.555 116.658 35.4945 109.954 21.4209C109.543 20.5593 108.995 20.1219 108.002 20.0567C102.434 19.6976 97.1339 18.0462 91.7943 16.584C87.9365 15.5265 84.0656 14.4821 80.0511 14.3385C69.6461 13.9729 60.3703 17.1519 52.1847 23.5228C48.7903 26.1665 46.3425 29.476 45.9574 33.9279C45.4939 39.2805 45.0761 44.6331 42.8176 49.6202C42.4651 50.4036 43.0199 50.4492 43.5878 50.4884C46.6297 50.6777 49.3452 49.9075 51.6494 47.8317C54.391 45.3708 56.0164 42.3354 56.5909 38.6865C57.1588 35.0898 59.0648 32.2829 61.826 29.9264C68.6474 24.1038 79.1438 25.4158 85.5278 31.2581C95.4237 40.3184 105.574 49.098 115.679 57.9234C119.511 61.2655 123.336 64.6077 127.194 67.9172C127.572 68.237 128.088 69.0725 128.577 68.4981C129.446 67.4668 130.118 66.2461 130.568 64.9079L130.575 64.9014ZM59.6588 10.2718C58.98 10.0564 58.4904 10.2326 57.9943 10.2913C55.3898 10.5851 52.7853 11.0094 50.1742 11.1008C41.1335 11.4272 32.1384 11.029 23.3065 8.85527C22.0141 8.53542 21.3221 8.92055 20.6367 9.98455C15.9107 17.2759 12.2879 25.0699 10.062 33.4709C7.55539 42.9294 6.64805 52.5577 7.699 62.3099C8.08413 65.8805 8.5998 69.4446 9.57242 72.9239C9.67686 73.3025 9.55937 74.1706 10.4406 73.7659C11.9158 73.087 12.2618 71.3442 11.1978 70.13C8.20815 66.7161 7.92746 64.4184 9.85964 60.6323C16.8638 46.8982 23.8548 33.1576 30.8068 19.3974C32.3016 16.4338 34.5993 14.9194 37.8762 14.8672C40.3306 14.828 42.8372 14.5278 45.2328 14.8933C50.827 15.7419 55.0046 12.6413 59.6654 10.2783L59.6588 10.2718ZM101.984 11.0094C101.566 11.2313 101.56 11.3162 101.703 11.4076C101.749 11.4337 101.808 11.4467 101.866 11.4663C105.013 12.4063 108.283 12.5173 111.514 12.7131C113.42 12.8306 114.563 13.5747 115.359 15.2589C119.628 24.2866 123.936 33.2881 128.238 42.2963C129.596 45.1423 130.986 47.9753 132.409 50.9127C132.951 50.273 132.801 49.7508 132.742 49.2678C132.435 46.611 132.181 43.9412 131.756 41.2975C129.942 30.0439 125.908 19.6454 119.582 10.1412C118.799 8.96624 117.937 8.56153 116.573 8.92707C115.202 9.29915 113.786 9.51456 112.382 9.78219C108.857 10.4545 105.274 10.7222 101.984 11.0029V11.0094ZM11.1195 86.3381C11.1195 89.1189 12.4903 91.149 14.9838 92.1673C17.386 93.1464 19.2986 92.7025 21.2634 90.5484C24.1747 87.3434 26.962 84.0208 29.5535 80.5546C31.6162 77.7934 31.1527 74.8887 28.4699 72.7476C25.7283 70.5608 23.1238 70.7045 20.7934 73.3351C17.8886 76.6185 15.0752 79.9933 12.2357 83.3354C11.472 84.2362 11.0216 85.261 11.1195 86.3381ZM43.8751 121.326C43.9208 121.868 44.2994 121.972 44.567 122.142C49.9196 125.589 55.6966 128.102 61.6171 130.419C67.022 132.534 72.2571 133.141 77.662 130.719C78.6999 130.256 79.8031 129.936 80.8736 129.544C86.2001 127.58 91.2068 124.995 95.9459 121.881C96.2918 121.653 96.9054 121.496 96.7422 120.921C96.6117 120.458 96.0568 120.628 95.6913 120.536C94.0659 120.138 92.5384 119.492 91.1676 118.552C90.2407 117.919 89.712 117.873 89.0005 118.944C85.3581 124.42 79.1634 126.313 73.0796 123.722C71.5652 123.076 70.7362 123.311 69.7636 124.499C67.8706 126.803 65.488 128.219 62.3743 128.167C57.9551 128.095 54.7044 125.941 52.126 122.54C51.7278 122.018 51.4928 121.169 50.6311 121.346C48.3856 121.803 46.1467 121.705 43.8751 121.32V121.326ZM37.243 85.2088C36.0223 85.1044 35.0301 85.7376 34.1815 86.782C32.0601 89.393 29.8929 91.9649 27.7323 94.5433C25.6108 97.076 25.774 99.4782 28.2349 101.704C31.2833 104.465 34.0706 104.224 36.6294 101.012C38.653 98.4664 40.67 95.9206 42.7458 93.4206C43.6401 92.3435 43.8228 91.1751 43.503 89.9022C42.8633 87.3434 40.0629 85.2088 37.2495 85.2153L37.243 85.2088ZM51.4862 96.9194C50.2329 96.7823 49.2473 97.5199 48.3595 98.4729C46.0945 100.895 44.1427 103.571 42.1256 106.195C41.1139 107.514 41.0943 108.943 41.8123 110.386C42.7588 112.298 44.3712 113.356 46.3817 113.963C48.0201 114.459 49.2538 114.054 50.2917 112.716C52.4915 109.87 54.7044 107.037 56.9629 104.243C57.7332 103.29 57.8442 102.285 57.5047 101.195C56.7671 98.8581 54.1104 96.9455 51.4797 96.9194H51.4862ZM57.7463 116.528C57.7658 117.821 58.758 119.231 60.181 120.001C62.1654 121.078 62.8117 120.961 64.2673 119.25C65.6642 117.599 67.0546 115.947 68.445 114.289C68.8106 113.852 69.2675 113.415 69.1957 112.808C68.9737 110.921 67.7596 109.785 66.1473 108.989C64.7634 108.304 63.4449 108.415 62.3874 109.537C60.8208 111.195 59.4304 112.997 58.1771 114.903C57.8572 115.393 57.7136 115.941 57.7463 116.528ZM76.0628 108.78C76.6111 111.012 76.9831 112.716 76.6372 114.498C76.2325 116.561 77.0615 117.312 79.1764 116.874C80.4558 116.607 81.4807 115.96 82.2183 114.864C82.6361 114.244 82.636 113.721 82.0029 113.245C80.149 111.861 78.3017 110.464 76.0628 108.78Z" fill="#183178"/>
</g>
</svg>
