<svg width="141" height="146" viewBox="0 0 141 146" fill="none" xmlns="http://www.w3.org/2000/svg">
<g id="OheU7K.tif">
<g id="Group">
<path id="Vector" d="M89.0574 111.252C88.2247 111.074 86.6186 110.727 85.0224 110.39C81.7903 109.716 79.0342 110.241 76.4069 112.581C71.202 117.211 69.7148 117.241 64.6586 112.829C61.5852 110.142 58.3928 109.716 54.6254 110.598C48.2902 112.085 46.6742 111.421 44.265 105.651C42.6292 101.725 40.0416 99.8214 35.8776 99.1472C29.9886 98.1855 28.7394 96.6389 29.0368 90.4723C29.2549 86.0506 27.7777 83.0664 24.1392 80.5581C19.3308 77.2368 18.8747 75.0061 21.8887 69.7516C24.0103 66.0536 24.0004 62.9108 21.9283 59.193C18.9342 53.8294 19.3011 51.8763 24.2978 48.4261C28.0156 45.8683 29.5028 42.8444 28.9872 38.4921C28.3527 33.2177 30.9899 30.4616 36.1056 29.9163C40.2994 29.4701 42.7581 27.2097 44.4138 23.3233C46.9022 17.464 48.5777 16.7106 54.7642 18.5843C58.8786 19.8236 61.9817 18.8719 65.0948 16.1058C69.8239 11.9022 71.202 11.8625 75.9806 16.1554C79.3019 19.1296 82.6628 19.9822 86.7772 18.3861C91.6153 16.5123 94.8473 18.5149 96.4138 23.0755C97.9406 27.527 100.905 29.6288 105.446 30.1344C110.145 30.6599 112.534 33.4457 111.979 38.1947C111.434 42.9436 112.931 46.354 117.134 48.8822C121.229 51.3409 121.903 55.0587 119.197 58.9748C116.49 62.881 116.688 66.5096 119.197 70.3663C121.963 74.6294 120.991 78.1787 116.678 80.7266C113.01 82.8879 111.791 85.9811 111.91 90.1848C112.088 96.6389 110.799 98.2946 104.771 99.2166C100.568 99.861 97.9009 101.725 96.4733 105.74C95.3926 108.764 93.7469 111.451 89.0773 111.243L89.0574 111.252ZM69.9528 99.286C90.2273 99.4248 105.614 84.2462 105.584 64.1401C105.555 45.2635 89.8605 29.7378 70.5873 29.5296C51.5024 29.3115 35.491 44.8372 35.3026 63.7436C35.1043 83.8496 50.0153 99.1472 69.9528 99.286Z" fill="#183178"/>
<path id="Vector_2" d="M117.897 102.35C118.938 98.9985 121.416 96.4704 123.042 93.4565C137.794 66.1131 137.626 38.968 122.1 11.9617C120.227 8.7098 118.055 7.63906 114.1 8.27357C100.567 10.4646 87.004 10.3754 73.5603 7.31189C71.5973 6.86575 69.7136 6.8261 67.7308 7.25241C53.6328 10.3456 39.4554 10.5737 25.2583 8.03563C22.5418 7.54983 20.8465 8.44211 19.5477 10.6629C12.6573 22.4013 8.04721 34.7346 7.32347 48.6145C6.28248 68.5024 11.9435 86.1299 23.2655 102.191C22.2642 103.787 20.9555 105.086 19.3692 106.097C17.198 105.631 16.2661 103.817 15.1656 102.211C-4.67273 73.3207 -4.32573 32.2759 15.8497 3.52466C17.8722 0.639627 19.9343 -0.193165 23.2754 0.679285C38.0079 4.526 52.7405 4.23849 67.4333 0.342202C69.2179 -0.13368 70.9925 -0.0940235 72.7771 0.342202C88.1441 4.08977 103.531 4.55574 118.908 0.481C121.386 -0.173338 122.913 0.649541 124.271 2.67204C141.949 28.9348 145.19 56.8433 133.968 86.4471C131.806 92.1577 128.802 97.4122 125.412 102.459C124.41 103.946 123.488 105.562 121.525 105.998C120.316 104.778 119.096 103.559 117.887 102.35H117.897Z" fill="#183178"/>
<path id="Vector_3" d="M19.369 106.107C20.9652 105.096 22.264 103.797 23.2653 102.201C26.2792 98.7804 29.4716 98.4136 33.9132 100.069C37.859 101.537 41.3092 102.349 43.0937 106.89C45.4236 112.829 48.15 113.79 54.3463 112.254C55.4567 111.976 56.5473 111.57 57.6676 111.421C60.9195 111.005 62.9221 113.176 64.4985 115.397C66.1443 117.726 63.3683 118.718 62.2876 120.106C60.1957 122.793 57.2314 124.746 55.6352 127.869C54.0687 128.88 52.7997 130.179 51.8182 131.755C47.6146 135.86 43.3515 139.905 39.247 144.098C37.1749 146.21 36.0645 145.883 35.321 143.127C34.2205 139.022 32.7929 134.997 31.9997 130.833C31.1273 126.213 28.8272 123.675 24.0683 123.07C20.8462 122.664 17.6737 121.742 14.5309 120.879C12.6967 120.374 10.0298 120.75 9.32591 118.787C8.56252 116.676 11.1501 115.635 12.3696 114.237C14.7192 111.53 17.6439 109.339 19.369 106.097V106.107Z" fill="#183178"/>
<path id="Vector_4" d="M117.895 102.349C119.105 103.569 120.324 104.788 121.534 105.998C123.527 110.083 127.215 112.7 130.239 115.882C132.648 118.42 132.251 119.57 128.851 120.255C124.528 121.127 120.305 122.584 115.952 123.249C111.739 123.893 109.805 126.035 109.002 130.099C108.15 134.422 106.593 138.596 105.532 142.879C104.759 146.002 103.748 146.309 101.487 143.93C93.8336 135.86 86.0312 127.928 78.3675 119.858C77.2571 118.688 74.7587 117.578 76.1169 115.555C77.614 113.325 79.5473 111.015 82.8289 111.401C83.9591 111.53 85.0596 111.887 86.1799 112.155C92.9314 113.761 95.3009 112.7 98.0373 106.216C99.3856 103.034 101.269 101.11 104.828 100.763C106.583 100.595 108.447 100.109 109.964 99.2364C114.059 96.8768 115.05 101.884 117.886 102.34L117.895 102.349Z" fill="#183178"/>
<path id="Vector_5" d="M51.8086 131.755C52.7901 130.179 54.0591 128.87 55.6256 127.869C57.6382 128.563 59.7003 129.128 61.6435 129.99C67.5226 132.598 73.3522 132.717 79.2313 130.04C80.2723 129.564 81.3629 129.167 82.4733 128.9C85.3583 128.196 86.9743 130.337 87.7476 132.29C88.6597 134.61 85.8738 134.392 84.6147 135.056C75.2359 140.014 65.7876 139.617 56.3196 135.275C54.5251 134.452 52.6216 133.817 51.8086 131.765V131.755Z" fill="#183178"/>
<path id="Vector_6" d="M93.0604 41.6845C93.5859 43.3104 92.5846 43.8854 91.96 44.5299C81.6492 55.1678 74.5803 67.8778 68.4732 81.2124C67.7296 82.8483 67.0059 84.5535 65.9352 85.9613C61.2656 92.0586 56.8736 91.5728 53.9588 84.6427C51.966 79.9137 49.2099 75.7001 46.2158 71.5659C44.9963 69.8904 41.4471 68.6709 44.1933 65.5876C46.9494 62.4845 52.1048 61.4435 54.861 63.6444C56.4968 64.9531 58.0335 66.589 59.0646 68.3934C61.5332 72.706 63.1294 71.5659 65.2907 68.0662C70.5651 59.5003 76.8011 51.7177 84.9704 45.6601C87.4391 43.8359 89.987 42.2298 93.0604 41.6746V41.6845Z" fill="#183178"/>
</g>
</g>
</svg>
