<svg width="28" height="28" viewBox="0 0 28 28" fill="none" xmlns="http://www.w3.org/2000/svg">
<rect width="28" height="28" rx="8" fill="white" fill-opacity="0.7"/>
<path d="M17.9743 21.3203L14.3993 18.5786C14.0596 18.3202 13.5891 18.3202 13.2493 18.5786L9.64102 21.3203C9.37789 21.5318 9.01916 21.5799 8.70958 21.4452C8.4 21.3106 8.19065 21.0153 8.16602 20.6786V8.96193C8.19834 8.27498 8.50323 7.62927 9.01315 7.16784C9.52307 6.70641 10.1959 6.46734 10.8827 6.5036H16.716C17.4069 6.47202 18.0816 6.7188 18.5891 7.18869C19.0966 7.65857 19.3944 8.31232 19.416 9.0036V20.6786C19.3836 21.0032 19.1796 21.2855 18.8815 21.4181C18.5835 21.5508 18.2372 21.5134 17.9743 21.3203Z" fill="#18181B"/>
</svg>
