<svg width="28" height="28" viewBox="0 0 28 28" fill="none" xmlns="http://www.w3.org/2000/svg">
<rect width="28" height="28" rx="8" fill="white" fill-opacity="0.7"/>
<path fill-rule="evenodd" clip-rule="evenodd" d="M10.9797 6.50362H17.0202C17.7299 6.46734 18.4254 6.70517 18.9531 7.16461C19.4809 7.62404 19.7976 8.26732 19.8333 8.95247V20.6637C19.8343 20.8982 19.7328 21.1223 19.5537 21.2808C19.3747 21.4394 19.1347 21.5177 18.8927 21.4966C18.6806 21.4966 18.4744 21.4293 18.3059 21.305L14.5695 18.5647C14.2166 18.3092 13.7315 18.3092 13.3787 18.5647L9.67674 21.305C9.51293 21.4259 9.31337 21.493 9.10721 21.4966C8.86522 21.5177 8.62523 21.4394 8.44618 21.2808C8.26714 21.1223 8.16565 20.8982 8.16663 20.6637V8.95247C8.20232 8.26732 8.519 7.62404 9.04677 7.16461C9.57455 6.70517 10.27 6.46734 10.9797 6.50362ZM15.372 17.5734L18.5216 19.9057L18.5044 8.95247C18.4227 8.22628 17.7572 7.69466 17.0029 7.75303H10.9625C10.2082 7.69466 9.54267 8.22628 9.46101 8.95247V19.9057L12.6107 17.5734C13.4262 16.9736 14.5564 16.9736 15.372 17.5734Z" fill="#18181B"/>
</svg>