<svg width="24" height="24" viewBox="0 0 24 24" fill="none" xmlns="http://www.w3.org/2000/svg">
<path d="M20 3V7" stroke="#505673" stroke-width="1.5" stroke-linecap="round" stroke-linejoin="round"/>
<path d="M18 5H22" stroke="#505673" stroke-width="1.5" stroke-linecap="round" stroke-linejoin="round"/>
<path d="M14 5H5C3.895 5 3 5.895 3 7V19C3 20.105 3.895 21 5 21H18C19.105 21 20 20.105 20 19V11" stroke="#505673" stroke-width="1.5" stroke-linecap="round" stroke-linejoin="round"/>
<path fill-rule="evenodd" clip-rule="evenodd" d="M6.96642 14.467L8.47042 12.081C8.81942 11.528 9.59642 11.453 10.0444 11.929L11.1194 13.071L12.2464 10.676C12.5934 9.93801 13.6314 9.90401 14.0264 10.618L16.1804 14.516C16.5484 15.183 16.0654 16 15.3044 16H7.81242C7.02442 16 6.54642 15.133 6.96642 14.467Z" stroke="#505673" stroke-width="1.5" stroke-linecap="round" stroke-linejoin="round"/>
</svg>
