<svg xmlns="http://www.w3.org/2000/svg" width="24" height="24" viewBox="0 0 24 24" fill="none">
  <path d="M5.62549 18.3577C8.50422 21.2441 12.9631 21.8361 16.4953 19.801C20.0275 17.7658 21.7515 13.6112 20.6981 9.67314C19.6447 5.73504 16.0767 2.99622 12.0001 2.99622" stroke="#8990B9" stroke-width="1.5" stroke-linecap="round" stroke-linejoin="round"/>
  <path d="M3.77801 15.4265C3.77798 15.4541 3.75558 15.4764 3.72797 15.4764C3.70036 15.4764 3.67798 15.454 3.67797 15.4264C3.67796 15.3988 3.70032 15.3764 3.72793 15.3764C3.74122 15.3764 3.75397 15.3817 3.76336 15.391C3.77276 15.4004 3.77803 15.4132 3.77801 15.4265" stroke="#8990B9" stroke-width="1.5" stroke-linecap="round" stroke-linejoin="round"/>
  <path d="M3.09637 12C3.09634 12.0276 3.07394 12.05 3.04633 12.05C3.01872 12.05 2.99634 12.0276 2.99633 12C2.99632 11.9724 3.01868 11.95 3.04629 11.9499C3.05958 11.9499 3.07233 11.9552 3.08172 11.9646C3.09112 11.974 3.09639 11.9867 3.09637 12" stroke="#8990B9" stroke-width="1.5" stroke-linecap="round" stroke-linejoin="round"/>
  <path d="M3.77801 8.57357C3.77801 8.60119 3.75563 8.62358 3.72801 8.62359C3.70039 8.6236 3.67799 8.60123 3.67797 8.57361C3.67795 8.54599 3.70031 8.52358 3.72793 8.52355C3.74122 8.52354 3.75397 8.52881 3.76337 8.53821C3.77276 8.5476 3.77803 8.56035 3.77801 8.57364" stroke="#8990B9" stroke-width="1.5" stroke-linecap="round" stroke-linejoin="round"/>
  <path d="M5.71893 5.6688C5.71889 5.6964 5.69649 5.71876 5.66889 5.71875C5.64128 5.71873 5.6189 5.69636 5.61889 5.66875C5.61888 5.64114 5.64123 5.61874 5.66884 5.61871C5.68213 5.61869 5.69488 5.62396 5.70428 5.63336C5.71368 5.64275 5.71895 5.65551 5.71893 5.6688" stroke="#8990B9" stroke-width="1.5" stroke-linecap="round" stroke-linejoin="round"/>
  <path d="M8.62371 3.72787C8.62367 3.75548 8.60127 3.77784 8.57366 3.77783C8.54605 3.77782 8.52367 3.75543 8.52366 3.72782C8.52366 3.70021 8.54602 3.67782 8.57363 3.67779C8.58692 3.67777 8.59967 3.68304 8.60907 3.69243C8.61847 3.70183 8.62374 3.71458 8.62373 3.72787" stroke="#8990B9" stroke-width="1.5" stroke-linecap="round" stroke-linejoin="round"/>
  <path d="M16.0496 12.6025H11.3977" stroke="#8990B9" stroke-width="1.5" stroke-linecap="round" stroke-linejoin="round"/>
  <path d="M11.3977 12.6025V6.99792" stroke="#8990B9" stroke-width="1.5" stroke-linecap="round" stroke-linejoin="round"/>
</svg>